<mxfile host="app.diagrams.net" modified="2024-02-23T02:28:56.611Z" agent="Mozilla/5.0 (Windows NT 10.0; Win64; x64; rv:122.0) Gecko/20100101 Firefox/122.0" version="21.7.2" etag="YDg1jF7ubHBDwhFFY1x_" type="github">
  <diagram name="Pagina-1" id="s2DshmrC42do39ld6PaV">
    <mxGraphModel>
      <root>
        <mxCell id="0" />
        <mxCell id="1" parent="0" />
      </root>
    </mxGraphModel>
  </diagram>
</mxfile>
